<svg xmlns="http://www.w3.org/2000/svg" width="453" height="453" viewBox="0 0 453 453" version="1.1"><path d="M 197.668 54.020 C 147.677 63.335, 105.957 99.467, 85.692 151.001 C 68.611 194.436, 70.399 243.003, 90.661 285.969 C 103.686 313.590, 123.834 337.315, 148 353.487 C 165.827 365.416, 179.725 371.183, 200 375.063 C 209.941 376.965, 213.601 377.185, 227 376.690 C 250.756 375.811, 261.381 373.276, 280.500 363.922 C 294.092 357.273, 305.505 349.156, 318.250 337.076 L 327 328.782 327 351.891 L 327 375 340.500 375 L 354 375 354 296.015 L 354 217.029 323.868 216.765 L 293.736 216.500 270.647 153.730 L 247.558 90.961 227.120 91.230 L 206.683 91.500 169.375 192.500 C 148.855 248.050, 132.052 294.072, 132.033 294.771 C 132.007 295.766, 136.385 295.983, 152.250 295.771 L 172.500 295.500 181.171 272 C 185.940 259.075, 190.062 247.707, 190.331 246.737 C 190.788 245.089, 193.168 244.992, 227.023 245.237 L 263.226 245.500 272.490 270.500 L 281.754 295.500 302.366 295.770 L 322.979 296.041 319.597 286.770 C 314.353 272.399, 305.289 247.804, 304.111 244.750 L 303.050 242 315.025 242 L 327 242 327 268.802 L 327 295.603 318.431 304.787 C 288.619 336.735, 253.115 351.754, 216.145 348.058 C 202.124 346.657, 192.028 343.970, 180.646 338.613 C 145.067 321.867, 119.120 288.518, 109.245 246.846 C 106.770 236.401, 106.558 233.832, 106.567 214.500 C 106.575 196.566, 106.900 192.013, 108.795 183.312 C 118.285 139.719, 143.235 105.947, 178.025 89.604 C 193.658 82.260, 215.076 79.019, 234.500 81.058 C 271.676 84.961, 299.014 101.530, 316.382 130.685 L 320.662 137.869 332.788 129.816 L 344.914 121.763 342.546 117.132 C 333.270 98.983, 312.803 78.290, 293.333 67.378 C 281.205 60.580, 263.320 55.237, 245.500 53.090 C 231.797 51.439, 209.159 51.879, 197.668 54.020 M 226.607 134 C 225.078 138.019, 198 216.153, 198 216.546 C 198 216.796, 210.825 217, 226.500 217 C 249.380 217, 255 216.741, 255 215.685 C 255 212.771, 227.136 132.608, 226.607 134" stroke="none" fill="#f6eeee" fill-rule="evenodd"/><path d="M 214.500 2.634 C 133.898 7.595, 62.284 54.593, 26.518 126 C 8.028 162.916, -0.208 204.049, 2.996 243.478 C 9.459 323.005, 54.860 391.155, 125.342 427.127 C 189.279 459.759, 264.721 459.759, 328.658 427.127 C 373.798 404.089, 407.419 369.564, 429.653 323.419 C 444.548 292.505, 451.261 262.591, 451.290 227 C 451.330 177.296, 436.376 132.062, 406.661 92 C 398.170 80.553, 375.551 57.661, 364.478 49.309 C 346.459 35.716, 324.974 23.756, 305.643 16.558 C 278.616 6.493, 242.194 0.929, 214.500 2.634 M 197.668 54.020 C 147.677 63.335, 105.957 99.467, 85.692 151.001 C 68.611 194.436, 70.399 243.003, 90.661 285.969 C 103.686 313.590, 123.834 337.315, 148 353.487 C 165.827 365.416, 179.725 371.183, 200 375.063 C 209.941 376.965, 213.601 377.185, 227 376.690 C 250.756 375.811, 261.381 373.276, 280.500 363.922 C 294.092 357.273, 305.505 349.156, 318.250 337.076 L 327 328.782 327 351.891 L 327 375 340.500 375 L 354 375 354 296.015 L 354 217.029 323.868 216.765 L 293.736 216.500 270.647 153.730 L 247.558 90.961 227.120 91.230 L 206.683 91.500 169.375 192.500 C 148.855 248.050, 132.052 294.072, 132.033 294.771 C 132.007 295.766, 136.385 295.983, 152.250 295.771 L 172.500 295.500 181.171 272 C 185.940 259.075, 190.062 247.707, 190.331 246.737 C 190.788 245.089, 193.168 244.992, 227.023 245.237 L 263.226 245.500 272.490 270.500 L 281.754 295.500 302.366 295.770 L 322.979 296.041 319.597 286.770 C 314.353 272.399, 305.289 247.804, 304.111 244.750 L 303.050 242 315.025 242 L 327 242 327 268.802 L 327 295.603 318.431 304.787 C 288.619 336.735, 253.115 351.754, 216.145 348.058 C 202.124 346.657, 192.028 343.970, 180.646 338.613 C 145.067 321.867, 119.120 288.518, 109.245 246.846 C 106.770 236.401, 106.558 233.832, 106.567 214.500 C 106.575 196.566, 106.900 192.013, 108.795 183.312 C 118.285 139.719, 143.235 105.947, 178.025 89.604 C 193.658 82.260, 215.076 79.019, 234.500 81.058 C 271.676 84.961, 299.014 101.530, 316.382 130.685 L 320.662 137.869 332.788 129.816 L 344.914 121.763 342.546 117.132 C 333.270 98.983, 312.803 78.290, 293.333 67.378 C 281.205 60.580, 263.320 55.237, 245.500 53.090 C 231.797 51.439, 209.159 51.879, 197.668 54.020 M 226.607 134 C 225.078 138.019, 198 216.153, 198 216.546 C 198 216.796, 210.825 217, 226.500 217 C 249.380 217, 255 216.741, 255 215.685 C 255 212.771, 227.136 132.608, 226.607 134" stroke="none" fill="#040404" fill-rule="evenodd"/></svg>